<svg  class="icon" viewBox="0 0 1024 1024" version="1.1" xmlns="http://www.w3.org/2000/svg"  width="128" height="128"><path d="M896 938.666667H682.666667a42.666667 42.666667 0 0 1-42.666667-42.666667V640a42.666667 42.666667 0 0 0-42.666667-42.666667H277.333333a42.666667 42.666667 0 0 0-42.666666 42.666667v256a42.666667 42.666667 0 0 1-42.666667 42.666667H128a42.666667 42.666667 0 0 1-42.666667-42.666667V533.333333a85.333333 85.333333 0 0 1 85.333334-85.333333h128v-64H128a42.666667 42.666667 0 0 1-42.666667-42.666667V128a42.666667 42.666667 0 0 1 42.666667-42.666667h384a42.666667 42.666667 0 0 1 42.666667 42.666667v213.333333a42.666667 42.666667 0 0 1-42.666667 42.666667h-149.333333v64h298.666666v-96a32 32 0 0 1 64 0V448h64v-181.333333a32 32 0 0 1 64 0V448a85.333333 85.333333 0 0 1 85.333334 85.333333v362.666667a42.666667 42.666667 0 0 1-42.666667 42.666667zM490.666667 341.333333a21.333333 21.333333 0 0 0 21.333333-21.333333V149.333333a21.333333 21.333333 0 0 0-21.333333-21.333333H149.333333a21.333333 21.333333 0 0 0-21.333333 21.333333v170.666667a21.333333 21.333333 0 0 0 21.333333 21.333333h341.333334zM170.666667 192a21.333333 21.333333 0 0 1 21.333333-21.333333h256a21.333333 21.333333 0 0 1 21.333333 21.333333v85.333333a21.333333 21.333333 0 0 1-21.333333 21.333334H192a21.333333 21.333333 0 0 1-21.333333-21.333334V192z" fill="#1296db" ></path></svg>
